<svg width="1068" height="352" viewBox="0 0 1068 352" fill="none" xmlns="http://www.w3.org/2000/svg">
<path d="M1048.91 14.1542C1046.6 9.15664 1048.85 3.22201 1053.83 0.910617C1058.82 -1.40078 1064.74 0.848124 1067.05 5.84573C1069.36 10.8433 1067.11 16.778 1062.12 19.0894C1057.14 21.4008 1051.22 19.1518 1048.91 14.1542ZM1051.65 12.9048C1053.27 16.4032 1057.39 17.9649 1060.94 16.3407C1064.43 14.7165 1065.99 10.5935 1064.37 7.03267C1062.75 3.47188 1058.63 1.9726 1055.08 3.59682C1051.59 5.22104 1050.03 9.40652 1051.65 12.9048Z" fill="url(#paint0_linear_53902_2)"/>
<path d="M13.698 349.533L13.6228 343.024C13.6555 342.775 13.8545 342.548 14.1149 342.498L20.6387 342.427C20.8882 342.459 21.0872 342.232 21.1308 341.9L21.1007 338.267C21.1335 338.018 20.9058 337.82 20.5731 337.776L14.0493 337.847C13.7998 337.814 13.5721 337.615 13.5217 337.356L13.4464 330.847C13.4792 330.598 13.2515 330.399 12.9188 330.355L9.2772 330.383C9.0277 330.35 8.82866 330.577 8.78504 330.909L8.86028 337.418C8.82756 337.667 8.62852 337.894 8.36811 337.944L1.84431 338.015C1.59481 337.982 1.39577 338.21 1.35215 338.541L1.38225 342.175C1.34953 342.424 1.57723 342.622 1.9099 342.666L8.4337 342.595C8.6832 342.628 8.9109 342.826 8.96136 343.086L9.03654 349.595C9.00383 349.844 9.23153 350.043 9.5642 350.086L13.2058 350.059C13.4662 350.008 13.6652 349.781 13.698 349.533Z" fill="#FDD08D"/>
<defs>
<linearGradient id="paint0_linear_53902_2" x1="1053.97" y1="0.866138" x2="1062.07" y2="19.1436" gradientUnits="userSpaceOnUse">
<stop stop-color="#BFF0DD"/>
<stop offset="1" stop-color="#57D2A3"/>
</linearGradient>
</defs>
</svg>
